<?xml version="1.0" encoding="UTF-8"?>
<svg width="65px" height="65px" viewBox="0 0 65 65" version="1.1" xmlns="http://www.w3.org/2000/svg" xmlns:xlink="http://www.w3.org/1999/xlink">
    <!-- Generator: Sketch 46.2 (44496) - http://www.bohemiancoding.com/sketch -->
    <title>Home</title>
    <desc>Created with Sketch.</desc>
    <defs>
        <circle id="path-1" cx="27.5" cy="27.5" r="27.5"></circle>
        <filter x="-14.5%" y="-12.7%" width="129.1%" height="129.1%" filterUnits="objectBoundingBox" id="filter-2">
            <feMorphology radius="0.5" operator="dilate" in="SourceAlpha" result="shadowSpreadOuter1"></feMorphology>
            <feOffset dx="0" dy="1" in="shadowSpreadOuter1" result="shadowOffsetOuter1"></feOffset>
            <feGaussianBlur stdDeviation="2" in="shadowOffsetOuter1" result="shadowBlurOuter1"></feGaussianBlur>
            <feComposite in="shadowBlurOuter1" in2="SourceAlpha" operator="out" result="shadowBlurOuter1"></feComposite>
            <feColorMatrix values="0 0 0 0 0   0 0 0 0 0   0 0 0 0 0  0 0 0 0.5 0" type="matrix" in="shadowBlurOuter1"></feColorMatrix>
        </filter>
    </defs>
    <g id="Symbols" stroke="none" stroke-width="1" fill="none" fill-rule="evenodd">
        <g id="Home" transform="translate(0.000000, -1.000000)">
            <g transform="translate(5.000000, 5.000000)">
                <g id="Oval-3">
                    <use fill="black" fill-opacity="1" filter="url(#filter-2)" xlink:href="#path-1"></use>
                    <use fill-opacity="0.6" fill="#FFFFFF" fill-rule="evenodd" xlink:href="#path-1"></use>
                </g>
                <g id="Group" transform="translate(27.500000, 28.000000) scale(-1, 1) translate(-27.500000, -28.000000) translate(13.000000, 16.000000)" fill="#000000">
                    <path d="M12.1788564,21.8836377 C12.140785,21.7849544 12.1277053,21.7012438 12.1405515,21.6334132 C12.1533976,21.5660364 12.10902,21.5102293 12.0074186,21.4673531 C11.9058172,21.424477 11.8551333,21.3902214 11.8551333,21.3657207 C11.8551333,21.34122 11.7822605,21.3226177 11.6362815,21.3103673 C11.4903024,21.2978901 11.4174297,21.291765 11.4174297,21.291765 L11.1700828,21.291765 L10.9608072,21.291765 L5.48040362,21.291765 C4.64306783,21.291765 3.92625234,21.0025209 3.32995714,20.4231254 C2.73366195,19.8439567 2.43563114,19.1479561 2.43563114,18.3348968 L2.43563114,5.3227711 C2.43563114,4.50948489 2.73366195,3.8134843 3.32995714,3.23431563 C3.92625234,2.65514695 4.64306783,2.36544919 5.48040362,2.36544919 L11.569715,2.36544919 C11.734613,2.36544919 11.8644759,2.32574902 11.959771,2.24544126 C12.0548326,2.16536036 12.1181291,2.04512558 12.1498941,1.88496378 C12.1816592,1.72480197 12.2008116,1.58006652 12.2071179,1.45075741 C12.2134242,1.32144831 12.2103879,1.15811049 12.1975417,0.960970821 C12.1849291,0.763831151 12.1786228,0.640647214 12.1786228,0.591192153 C12.1786228,0.43103035 12.1183627,0.292646922 11.9978424,0.175361295 C11.8773221,0.0585293843 11.734613,-7.10542736e-15 11.569715,-7.10542736e-15 L5.48040362,-7.10542736e-15 C3.97086354,-7.10542736e-15 2.67994166,0.520639291 1.60787157,1.56169101 C0.536035046,2.60296959 7.10542736e-15,3.85658734 7.10542736e-15,5.32299796 L7.10542736e-15,18.3346699 C7.10542736e-15,19.8008537 0.536035046,21.0546983 1.60787157,22.09575 C2.67994166,23.1372554 3.97086354,23.6578947 5.48040362,23.6578947 L11.5699486,23.6578947 C11.7348465,23.6578947 11.8647095,23.6177409 11.9600046,23.5378868 C12.0550662,23.4575791 12.1183627,23.3375711 12.1501277,23.1771825 C12.1818927,23.0172475 12.2010452,22.8720584 12.2073515,22.7429761 C12.2136578,22.613667 12.2106214,22.450556 12.1977753,22.2534164 C12.1851627,22.0562767 12.1788564,21.9330928 12.1788564,21.8836377 L12.1788564,21.8836377 Z" id="Shape"></path>
                    <path d="M28.6448486,11.3632364 L18.4764589,1.12088455 C18.2399207,0.882631202 17.9593327,0.763157895 17.6353832,0.763157895 C17.3114337,0.763157895 17.0308457,0.882631202 16.794078,1.12088455 C16.5573104,1.35936898 16.4389266,1.64199152 16.4389266,1.96829 L16.4389266,7.39057564 L8.06487763,7.39057564 C7.7406987,7.39057564 7.46034013,7.51004894 7.2235725,7.74830229 C6.98680487,7.98678672 6.86842105,8.26940927 6.86842105,8.59570774 L6.86842105,15.825576 C6.86842105,16.1518745 6.98680487,16.434497 7.2235725,16.6727503 C7.46056955,16.9110037 7.74092813,17.0307081 8.06487763,17.0307081 L16.4389266,17.0307081 L16.4389266,22.4529937 C16.4389266,22.7790611 16.5573104,23.0619147 16.794078,23.3001681 C17.0308457,23.5386525 17.3114337,23.6578947 17.6353832,23.6578947 C17.9593327,23.6578947 18.2399207,23.5386525 18.4764589,23.3001681 L28.6448486,13.0580473 C28.8816162,12.8195629 29,12.5371714 29,12.210873 C29,11.8845745 28.8816162,11.6017208 28.6448486,11.3632364 L28.6448486,11.3632364 Z" id="Shape"></path>
                </g>
            </g>
        </g>
    </g>
</svg>