<?xml version="1.0" encoding="UTF-8"?>
<svg width="65px" height="65px" viewBox="0 0 65 65" version="1.1" xmlns="http://www.w3.org/2000/svg" xmlns:xlink="http://www.w3.org/1999/xlink">
    <!-- Generator: Sketch 46.2 (44496) - http://www.bohemiancoding.com/sketch -->
    <title>Record</title>
    <desc>Created with Sketch.</desc>
    <defs>
        <circle id="path-1" cx="27.5" cy="27.5" r="27.5"></circle>
        <filter x="-14.5%" y="-12.7%" width="129.1%" height="129.1%" filterUnits="objectBoundingBox" id="filter-2">
            <feMorphology radius="0.5" operator="dilate" in="SourceAlpha" result="shadowSpreadOuter1"></feMorphology>
            <feOffset dx="0" dy="1" in="shadowSpreadOuter1" result="shadowOffsetOuter1"></feOffset>
            <feGaussianBlur stdDeviation="2" in="shadowOffsetOuter1" result="shadowBlurOuter1"></feGaussianBlur>
            <feComposite in="shadowBlurOuter1" in2="SourceAlpha" operator="out" result="shadowBlurOuter1"></feComposite>
            <feColorMatrix values="0 0 0 0 0   0 0 0 0 0   0 0 0 0 0  0 0 0 0.5 0" type="matrix" in="shadowBlurOuter1"></feColorMatrix>
        </filter>
    </defs>
    <g id="Symbols" stroke="none" stroke-width="1" fill="none" fill-rule="evenodd">
        <g id="Record" transform="translate(0.000000, -1.000000)">
            <g transform="translate(5.000000, 5.000000)">
                <g id="Oval-3">
                    <use fill="black" fill-opacity="1" filter="url(#filter-2)" xlink:href="#path-1"></use>
                    <use fill-opacity="0.6" fill="#FFFFFF" fill-rule="evenodd" xlink:href="#path-1"></use>
                </g>
                <g id="Mic" transform="translate(18.000000, 13.000000)" fill="#000000">
                    <path d="M9.61596306,20.1664705 C11.0875377,20.1664705 12.3470989,19.6378816 13.3948519,18.5811177 C14.4426048,17.5243539 14.9665839,16.2532972 14.9665839,14.7687759 L14.9665839,6.13205038 C14.9665839,4.64752907 14.4430153,3.37688649 13.3948519,2.31970856 C12.3470989,1.26273767 11.0875377,0.733941651 9.61596306,0.733941651 C8.14438839,0.733941651 6.88482719,1.26273767 5.83686899,2.31970856 C4.78891079,3.37667945 4.26493169,4.64752907 4.26493169,6.13205038 L4.26493169,14.7687759 C4.26493169,16.2532972 4.78911603,17.5243539 5.83686899,18.5811177 C6.88462195,19.6378816 8.14438839,20.1664705 9.61596306,20.1664705 L9.61596306,20.1664705 Z" id="Shape"></path>
                    <path d="M18.945549,12.3009742 C18.7341513,12.0873025 18.4829369,11.9804666 18.1931372,11.9804666 C17.9033376,11.9804666 17.6525336,12.0873025 17.4407254,12.3009742 C17.2289172,12.5146459 17.123013,12.7676563 17.123013,13.0600056 L17.123013,15.2192905 C17.123013,17.2998978 16.3898938,19.0792529 14.9240659,20.558184 C13.4584432,22.037115 11.6941955,22.776477 9.63173332,22.776477 C7.56927113,22.776477 5.80522868,22.037115 4.3391955,20.558184 C2.87336756,19.079667 2.1404536,17.2998978 2.1404536,15.2192905 L2.1404536,13.0600056 C2.1404536,12.7676563 2.03454948,12.5146459 1.82274124,12.3009742 C1.610933,12.0873025 1.3603343,11.9804666 1.07032942,11.9804666 C0.780324534,11.9804666 0.529520594,12.0873025 0.317712356,12.3009742 C0.105904119,12.5146459 0,12.7676563 0,13.0600056 L0,15.2192905 C0,17.7046731 0.822193605,19.8666496 2.46637557,21.70522 C4.11055754,23.5437903 6.14223365,24.5980696 8.5614039,24.8678508 L8.5614039,27.0948398 L4.28070195,27.0948398 C3.99090231,27.0948398 3.74009837,27.2016756 3.52829013,27.4153473 C3.31648189,27.629019 3.21057777,27.8820295 3.21057777,28.1743787 C3.21057777,28.4665209 3.31648189,28.7199455 3.52829013,28.9334101 C3.74009837,29.1470818 3.99090231,29.2541247 4.28070195,29.2541247 L14.9823542,29.2541247 C15.2721538,29.2541247 15.5233683,29.1470818 15.734766,28.9334101 C15.9467795,28.7199455 16.0528889,28.4665209 16.0528889,28.1743787 C16.0528889,27.8820295 15.9467795,27.629019 15.734766,27.4153473 C15.5233683,27.2016756 15.2721538,27.0948398 14.9823542,27.0948398 L10.7020627,27.0948398 L10.7020627,24.8678508 C13.1208225,24.5980696 15.1524986,23.5437903 16.7968858,21.70522 C18.441273,19.8666496 19.2636719,17.7046731 19.2636719,15.2192905 L19.2636719,13.0600056 C19.2636719,12.7676563 19.1575625,12.5148529 18.945549,12.3009742 L18.945549,12.3009742 Z" id="Shape"></path>
                </g>
            </g>
        </g>
    </g>
</svg>