<?xml version="1.0" encoding="UTF-8"?>
<svg width="65px" height="65px" viewBox="0 0 65 65" version="1.1" xmlns="http://www.w3.org/2000/svg" xmlns:xlink="http://www.w3.org/1999/xlink">
    <!-- Generator: Sketch 46.2 (44496) - http://www.bohemiancoding.com/sketch -->
    <title>Settings</title>
    <desc>Created with Sketch.</desc>
    <defs>
        <circle id="path-1" cx="27.5" cy="27.5" r="27.5"></circle>
        <filter x="-14.5%" y="-12.7%" width="129.1%" height="129.1%" filterUnits="objectBoundingBox" id="filter-2">
            <feMorphology radius="0.5" operator="dilate" in="SourceAlpha" result="shadowSpreadOuter1"></feMorphology>
            <feOffset dx="0" dy="1" in="shadowSpreadOuter1" result="shadowOffsetOuter1"></feOffset>
            <feGaussianBlur stdDeviation="2" in="shadowOffsetOuter1" result="shadowBlurOuter1"></feGaussianBlur>
            <feComposite in="shadowBlurOuter1" in2="SourceAlpha" operator="out" result="shadowBlurOuter1"></feComposite>
            <feColorMatrix values="0 0 0 0 0   0 0 0 0 0   0 0 0 0 0  0 0 0 0.5 0" type="matrix" in="shadowBlurOuter1"></feColorMatrix>
        </filter>
    </defs>
    <g id="Symbols" stroke="none" stroke-width="1" fill="none" fill-rule="evenodd">
        <g id="Settings" transform="translate(0.000000, -1.000000)">
            <g transform="translate(5.000000, 5.000000)">
                <g id="Oval-3">
                    <use fill="black" fill-opacity="1" filter="url(#filter-2)" xlink:href="#path-1"></use>
                    <use fill-opacity="0.6" fill="#FFFFFF" fill-rule="evenodd" xlink:href="#path-1"></use>
                </g>
                <path d="M39.5284799,35.8531674 C39.5284799,35.7073704 39.4774654,35.5615734 39.3754363,35.4157765 C38.5586667,34.4381581 37.9024587,33.5996241 37.4065437,32.899906 C37.7126309,32.302219 37.9459553,31.7480294 38.1062483,31.2378742 L41.4971041,30.7129514 C41.6286679,30.6981838 41.7451958,30.6216605 41.8472249,30.4833816 C41.949254,30.3442972 42,30.2025278 42,30.0567308 L42,26.0093209 C42,25.8490248 41.949254,25.7067183 41.8472249,25.5829386 C41.7451958,25.4591588 41.6211499,25.382367 41.4753558,25.3536373 L38.1502819,24.8504632 C37.9894519,24.3545387 37.7416286,23.7563146 37.4062752,23.0565965 C37.6248322,22.7354673 37.9532047,22.2978079 38.3908557,21.7438868 C38.8282383,21.1896972 39.1348625,20.7960722 39.3096544,20.5627433 C39.4116835,20.4169464 39.462698,20.2781305 39.462698,20.1471011 C39.462698,19.7532076 38.412604,18.5865634 36.3129531,16.6468998 C36.1671589,16.5303696 36.0141153,16.4721045 35.8532853,16.4721045 C35.6784933,16.4721045 35.5326992,16.522583 35.4156342,16.625151 L32.8342986,18.5720642 C32.2366231,18.2659711 31.6896935,18.0398918 31.1937785,17.8938264 L30.6906141,14.54694 C30.6763837,14.4011431 30.6033524,14.2733358 30.4720571,14.1640552 C30.3407618,14.0547746 30.1949676,14 30.034406,14 L25.9658625,14 C25.630509,14 25.4116835,14.1750638 25.3096544,14.5249228 C25.134594,15.1959111 24.9670515,16.3190579 24.80649,17.8938264 C24.1795482,18.0978884 23.6181197,18.3312173 23.1222047,18.5938129 L20.6066511,16.625151 C20.4608569,16.5228515 20.3078133,16.4721045 20.1472517,16.4721045 C19.8698938,16.4721045 19.2939665,16.9022458 18.4189329,17.762797 C17.5438994,18.6230797 16.9456868,19.2720508 16.6251007,19.7097102 C16.5228031,19.8265089 16.4720571,19.9723059 16.4720571,20.1473696 C16.4720571,20.278399 16.5228031,20.4241959 16.6251007,20.5847606 C17.4416018,21.5621104 18.0978098,22.4006444 18.5937248,23.1003625 C18.2876376,23.6985865 18.0543132,24.2525076 17.8940202,24.7629313 L14.5031644,25.2875856 C14.3718691,25.3020847 14.2553412,25.378608 14.1530436,25.5168869 C14.0510145,25.6557028 14,25.7977407 14,25.9435377 L14,29.9904106 C14,30.1509752 14.0510145,30.2932817 14.1530436,30.4170614 C14.2553412,30.5411097 14.3791186,30.6103834 14.5251812,30.6248825 L17.8502551,31.1498053 C18.0253155,31.7039949 18.2806567,32.3019505 18.6160101,32.943672 C18.3826857,33.2648012 18.0400829,33.7097102 17.587933,34.2781305 C17.1355146,34.8470877 16.8366768,35.2337316 16.6908826,35.4375252 C16.5888535,35.5833221 16.537839,35.7224066 16.537839,35.8531674 C16.537839,36.2473294 17.587933,37.4137051 19.6878524,39.3533688 C19.8336466,39.4698989 19.9866902,39.5278955 20.1472517,39.5278955 C20.336811,39.5278955 20.4826052,39.477417 20.5846343,39.3751175 L23.1659699,37.4282043 C23.7636454,37.7345659 24.310575,37.9603767 24.80649,38.1061736 L25.3096544,41.4533285 C25.3241533,41.5991254 25.3971846,41.7269327 25.5282114,41.8362133 C25.6595067,41.9454939 25.8053009,42 25.9658625,42 L30.034406,42 C30.370028,42 30.588585,41.8252047 30.6906141,41.4750772 C30.8656745,40.7893213 31.033217,39.6591933 31.1937785,38.0841564 C31.7769552,37.9096297 32.3383836,37.6830134 32.8780637,37.4064556 L35.3938859,39.3751175 C35.5396801,39.477417 35.6927237,39.5278955 35.8532853,39.5278955 C36.1303747,39.5278955 36.7030801,39.0942636 37.5705957,38.2261944 C38.4381113,37.3589306 39.0398144,36.705932 39.3754363,36.2682726 C39.4774654,36.1667785 39.5284799,36.0282311 39.5284799,35.8531674 L39.5284799,35.8531674 Z M31.3887517,31.3887517 C30.3146741,32.4628293 29.0182917,33 27.5001319,33 C25.9817083,33 24.6853259,32.4628293 23.6112483,31.3887517 C22.5371707,30.3146741 22,29.0182917 22,27.4998681 C22,25.9817083 22.5371707,24.6853259 23.6112483,23.6112483 C24.6853259,22.536907 25.9817083,22 27.5001319,22 C29.0182917,22 30.3146741,22.536907 31.3887517,23.6112483 C32.463093,24.6853259 33,25.9817083 33,27.4998681 C33,29.0182917 32.463093,30.3146741 31.3887517,31.3887517 L31.3887517,31.3887517 Z" id="Shape" fill="#000000"></path>
            </g>
        </g>
    </g>
</svg>