<?xml version="1.0" encoding="UTF-8"?>
<svg width="65px" height="65px" viewBox="0 0 65 65" version="1.1" xmlns="http://www.w3.org/2000/svg" xmlns:xlink="http://www.w3.org/1999/xlink">
    <!-- Generator: Sketch 46.2 (44496) - http://www.bohemiancoding.com/sketch -->
    <title>Speaker</title>
    <desc>Created with Sketch.</desc>
    <defs>
        <circle id="path-1" cx="27.5" cy="27.5" r="27.5"></circle>
        <filter x="-14.5%" y="-12.7%" width="129.1%" height="129.1%" filterUnits="objectBoundingBox" id="filter-2">
            <feMorphology radius="0.5" operator="dilate" in="SourceAlpha" result="shadowSpreadOuter1"></feMorphology>
            <feOffset dx="0" dy="1" in="shadowSpreadOuter1" result="shadowOffsetOuter1"></feOffset>
            <feGaussianBlur stdDeviation="2" in="shadowOffsetOuter1" result="shadowBlurOuter1"></feGaussianBlur>
            <feComposite in="shadowBlurOuter1" in2="SourceAlpha" operator="out" result="shadowBlurOuter1"></feComposite>
            <feColorMatrix values="0 0 0 0 0   0 0 0 0 0   0 0 0 0 0  0 0 0 0.5 0" type="matrix" in="shadowBlurOuter1"></feColorMatrix>
        </filter>
    </defs>
    <g id="Symbols" stroke="none" stroke-width="1" fill="none" fill-rule="evenodd">
        <g id="Speaker" transform="translate(0.000000, -1.000000)">
            <g transform="translate(5.000000, 5.000000)">
                <g id="Oval-3">
                    <use fill="black" fill-opacity="1" filter="url(#filter-2)" xlink:href="#path-1"></use>
                    <use fill-opacity="0.6" fill="#FFFFFF" fill-rule="evenodd" xlink:href="#path-1"></use>
                </g>
                <g id="Group" transform="translate(14.000000, 16.000000)" fill="#000000">
                    <path d="M11.9167359,2 C11.6233779,2 11.3694943,2.10436749 11.1550853,2.31249685 L5.51833088,7.78946837 L1.08347184,7.78946837 C0.789906028,7.78946837 0.536022502,7.89383586 0.321613501,8.10196522 C0.1072045,8.31029645 0,8.55718511 0,8.84222745 L0,15.1577726 C0,15.4428149 0.1072045,15.6897036 0.321613501,15.8978329 C0.536230263,16.1061641 0.790113789,16.2105316 1.08347184,16.2105316 L5.51812312,16.2105316 L11.1548776,21.6875032 C11.3692866,21.8956325 11.6231701,22 11.9165282,22 C12.210094,22 12.4639775,21.8956325 12.6783865,21.6875032 C12.8927955,21.4793738 13,21.2324851 13,20.9474428 L13,3.05275908 C13,2.76771673 12.8927955,2.52082808 12.6785943,2.31249685 C12.4639775,2.10436749 12.2103017,2 11.9167359,2 L11.9167359,2 Z" id="Shape"></path>
                    <path d="M18.3032544,14.358109 C18.7678185,13.6305387 19,12.8446729 19,12.0003068 C19,11.1559408 18.7678185,10.3663931 18.3032544,9.63309555 C17.838489,8.89979801 17.2242342,8.38331927 16.4590815,8.08325024 C16.3498315,8.02781826 16.2130175,8 16.049243,8 C15.7651527,8 15.5190886,8.10288666 15.3116543,8.30825088 C15.1042201,8.51381964 15,8.76663854 15,9.06650303 C15,9.29989006 15.0655903,9.49707243 15.196972,9.65825471 C15.3281525,9.81943699 15.4864946,9.95832375 15.6724008,10.074915 C15.8579045,10.1915062 16.0438107,10.3193475 16.2297168,10.4582343 C16.415623,10.597121 16.5739651,10.7943034 16.7051456,11.0497814 C16.8359237,11.3054639 16.9017152,11.6221012 16.9017152,11.9998977 C16.9017152,12.3776943 16.8361249,12.6943315 16.7051456,12.9500141 C16.5739651,13.2056966 16.415623,13.4026744 16.2297168,13.5417657 C16.0438107,13.6806525 15.8579045,13.8084938 15.6724008,13.925085 C15.4864946,14.0414717 15.3281525,14.180563 15.196972,14.3415407 C15.0657915,14.5029276 15,14.6999054 15,14.9332924 C15,15.2333615 15.1042201,15.4859758 15.3116543,15.6915446 C15.5190886,15.8971133 15.7651527,16 16.049243,16 C16.2130175,16 16.3498315,15.9721817 16.4590815,15.9169543 C17.2242342,15.6054307 17.8386902,15.0858838 18.3032544,14.358109 L18.3032544,14.358109 Z" id="Shape"></path>
                    <path d="M22.5123658,16.7478115 C23.5040503,15.2970541 24,13.7144846 24,12.0001031 C24,10.2857217 23.5040503,8.70335847 22.5123658,7.25177593 C21.5206812,5.8010185 20.2078859,4.74507832 18.5748389,4.08395539 C18.4234121,4.02805389 18.2715557,4 18.1201289,4 C17.8168457,4 17.5541577,4.10643976 17.3322798,4.31931928 C17.1108315,4.5321988 17,4.78427126 17,5.07553665 C17,5.51264101 17.2274624,5.84309934 17.682602,6.06732418 C18.3357778,6.39221298 18.779104,6.63871592 19.0123658,6.8066267 C19.8758208,7.41184813 20.5494017,8.17074712 21.0335379,9.0839425 C21.5176741,9.99713788 21.7597423,10.9691227 21.7597423,11.9998969 C21.7597423,13.0306711 21.5176741,14.0026558 21.0335379,14.9158512 C20.5494017,15.8292529 19.875606,16.5879456 19.0123658,17.1929607 C18.779104,17.3610778 18.3357778,17.6075807 17.682602,17.9324695 C17.2274624,18.1566944 17,18.4871527 17,18.9242571 C17,19.2155225 17.1108315,19.4678012 17.3322798,19.6804744 C17.5541577,19.8935602 17.8222154,20 18.1373121,20 C18.277355,20 18.4234121,19.9717398 18.5748389,19.9160446 C20.2078859,19.2547154 21.5206812,18.1987752 22.5123658,16.7478115 L22.5123658,16.7478115 Z" id="Shape"></path>
                    <path d="M25.9407303,4.86931602 C24.5677511,2.70344923 22.7405622,1.1083106 20.4593626,0.0843144702 C20.3190393,0.028173877 20.1783179,7.10542736e-15 20.0379946,7.10542736e-15 C19.7569498,7.10542736e-15 19.5135237,0.107102165 19.3083132,0.320685012 C19.1027047,0.53447502 19,0.787832752 19,1.08034389 C19,1.48534337 19.2107836,1.81742223 19.6325497,2.07616614 C19.708384,2.12091289 19.8295995,2.17995373 19.9971913,2.25328868 C20.1647832,2.3262093 20.2863967,2.38525015 20.362231,2.43020405 C20.8594334,2.71132134 21.3026959,2.99844629 21.6922175,3.29095743 C23.021806,4.3147464 24.0599996,5.5918931 24.8058031,7.12219038 C25.5518057,8.65248766 25.924608,10.2782861 25.924608,12 C25.924608,13.7219211 25.5518057,15.3475123 24.8058031,16.8778096 C24.0599996,18.4081069 23.021806,19.6854608 21.6922175,20.7090426 C21.3026959,21.0015537 20.8594334,21.2884715 20.362231,21.5697959 C20.2863967,21.6145427 20.1647832,21.6735835 19.9971913,21.7467113 C19.8295995,21.8196319 19.708384,21.8786728 19.6325497,21.9238339 C19.2107836,22.1825778 19,22.5146566 19,22.9196561 C19,23.2121672 19.1027047,23.465525 19.3083132,23.6791078 C19.5135237,23.8928978 19.7569498,24 20.0379946,24 C20.1783179,24 20.3190393,23.9718261 20.4593626,23.9154784 C22.7405622,22.8916894 24.5677511,21.2965508 25.9407303,19.1304768 C27.3137094,16.96461 28,14.5874391 28,11.9995857 C28,9.41173221 27.3139085,7.03497566 25.9407303,4.86931602 L25.9407303,4.86931602 Z" id="Shape"></path>
                </g>
            </g>
        </g>
    </g>
</svg>