<?xml version="1.0" encoding="UTF-8"?>
<svg width="70px" height="70px" viewBox="0 0 70 70" version="1.1" xmlns="http://www.w3.org/2000/svg" xmlns:xlink="http://www.w3.org/1999/xlink">
    <!-- Generator: Sketch 44.1 (41455) - http://www.bohemiancoding.com/sketch -->
    <title>v</title>
    <desc>Created with Sketch.</desc>
    <defs>
        <polygon id="path-1" points="1.02008269e-20 0.000225806452 1.02008269e-20 69.7140538 69.713828 69.7140538 69.713828 0.000225806452"></polygon>
    </defs>
    <g id="Page-1" stroke="none" stroke-width="1" fill="none" fill-rule="evenodd">
        <g id="iPhone-7">
            <g id="Page-1">
                <mask id="mask-2" fill="white">
                    <use xlink:href="#path-1"></use>
                </mask>
                <g id="Clip-2"></g>
                <path d="M36.0716774,63.8266774 C28.7525376,64.0968925 22.1559785,62.0059247 16.1495269,57.428828 C17.5653333,57.0750645 18.7982366,56.7521613 20.040172,56.463129 C20.8357634,56.2779677 21.6388817,56.1063548 22.4472688,55.9957097 C23.8547957,55.8037742 25.007914,55.145172 26.0067312,54.1772151 C27.4037204,52.823129 28.3761935,51.1905484 29.1416774,49.3938817 C25.7131828,47.0183978 23.7208172,43.5936667 22.0054409,39.9566774 C21.8714624,39.6744194 21.6584516,39.4200108 21.4461935,39.185172 C20.0108172,37.6007634 19.3439355,35.7401183 19.5306022,33.6160323 C19.6254409,32.5389355 20.049957,31.6364624 21.2670538,31.5958172 C21.1421075,29.6666774 20.9163011,27.7804409 20.9208172,25.8942043 C20.9275914,22.6433441 21.7849032,19.6747419 24.286086,17.3835591 C26.0895269,15.7314086 28.1993118,14.6625914 30.5747957,14.1146344 C34.1237204,13.2957097 37.6304946,13.4183978 41.0627527,14.685172 C46.053828,16.5285054 48.7604946,20.3378602 48.8139355,25.7481828 C48.8327527,27.6773226 48.5941505,29.6094731 48.4729677,31.5596882 C49.7103871,31.905172 50.1747957,32.4042043 50.2357634,33.8493656 C50.3215699,35.8673226 49.684043,37.6587204 48.3103871,39.1723763 C48.0559785,39.4523763 47.8271613,39.7737742 47.663828,40.1132366 C46.5423226,42.4503333 45.332,44.7377527 43.5865161,46.6759247 C42.6983441,47.6626989 41.679957,48.5328065 40.5268387,49.6415161 C41.3209247,50.8473226 42.1195269,52.1999032 43.0543656,53.4493656 C44.3572688,55.1918387 46.2224301,55.900871 48.3367312,56.2154946 C50.043828,56.4699032 51.7147957,56.9621613 53.4030753,57.443129 C48.3013548,61.4813011 42.510172,63.588828 36.0716774,63.8266774 M34.8568387,0.000225806452 C15.6369462,0.000225806452 -0.000150537634,15.6365699 -0.000150537634,34.8572151 C-0.000150537634,54.0771075 15.6369462,69.7142043 34.8568387,69.7142043 C54.0774839,69.7142043 69.713828,54.0771075 69.713828,34.8572151 C69.713828,15.6365699 54.0774839,0.000225806452 34.8568387,0.000225806452" id="Fill-1" fill="#FFFFFF" mask="url(#mask-2)"></path>
            </g>
        </g>
    </g>
</svg>